<svg width="37" height="44" viewBox="0 0 37 44" fill="none" xmlns="http://www.w3.org/2000/svg">
<path d="M12.7289 7.82012H8.80129V0.440779C8.80129 0.197389 8.99925 0 9.24355 0H12.2868C12.531 0 12.729 0.1973 12.729 0.440779V7.82012H12.7289Z" fill="#E3E0E4"/>
<path d="M20.4638 7.82012H16.5362V0.440779C16.5362 0.197389 16.7341 0 16.9784 0H20.0217C20.2659 0 20.4638 0.1973 20.4638 0.440779V7.82012Z" fill="#E3E0E4"/>
<path d="M28.1987 7.82012H24.2711V0.440779C24.2711 0.197389 24.469 0 24.7133 0H27.7565C28.0007 0 28.1988 0.1973 28.1988 0.440779V7.82012H28.1987Z" fill="#E3E0E4"/>
<path d="M7.93543 12.2903V8.37585H0.442265C0.198054 8.37585 0 8.57315 0 8.81663V11.8496C0 12.093 0.197966 12.2904 0.442265 12.2904H7.93543V12.2903Z" fill="#E3E0E4"/>
<path d="M7.60985 16.0848H0.442265C0.198054 16.0848 0 16.2821 0 16.5255V19.5584C0 19.8018 0.197966 19.9991 0.442265 19.9991H7.60985" fill="#E3E0E4"/>
<path d="M7.60985 23.7936H0.442265C0.198054 23.7936 0 23.9909 0 24.2344V27.2673C0 27.5107 0.197966 27.7081 0.442265 27.7081H7.60985" fill="#E3E0E4"/>
<path d="M7.93543 35.624V31.7096H0.442265C0.198054 31.7096 0 31.9069 0 32.1504V35.1834C0 35.4267 0.197966 35.6241 0.442265 35.6241H7.93543V35.624Z" fill="#E3E0E4"/>
<path d="M28.1987 37.3155V43.5601C28.1987 43.8035 28.0007 44.0009 27.7564 44.0009H24.7132C24.469 44.0009 24.271 43.8036 24.271 43.5601V37.3998" fill="#E3E0E4"/>
<path d="M16.5362 37.0662H20.4638V43.5592C20.4638 43.8026 20.2659 44 20.0216 44H16.9784C16.7342 44 16.5362 43.8027 16.5362 43.5592V37.0662Z" fill="#E3E0E4"/>
<path d="M8.80129 37.0662H12.7289V43.5592C12.7289 43.8026 12.531 44 12.2867 44H9.24346C8.99925 44 8.8012 43.8027 8.8012 43.5592V37.0662H8.80129Z" fill="#E3E0E4"/>
<path d="M30.0428 12.2903V8.37585H36.5577C36.8019 8.37585 37 8.57315 37 8.81663V11.8496C37 12.093 36.802 12.2904 36.5577 12.2904H30.0428V12.2903Z" fill="#E3E0E4"/>
<path d="M30.3684 16.0848H36.5577C36.8019 16.0848 37 16.2821 37 16.5255V19.5584C37 19.8018 36.802 19.9991 36.5577 19.9991H30.3684" fill="#E3E0E4"/>
<path d="M30.3684 23.7936H36.5577C36.8019 23.7936 37 23.9909 37 24.2344V27.2673C37 27.5107 36.802 27.7081 36.5577 27.7081H30.3684" fill="#E3E0E4"/>
<path d="M30.0428 35.624V31.7096H36.5577C36.8019 31.7096 37 31.9069 37 32.1504V35.1834C37 35.4267 36.802 35.6241 36.5577 35.6241H30.0428V35.624Z" fill="#E3E0E4"/>
<path d="M36.5577 8.37585H33.8897C34.1339 8.37585 34.332 8.57315 34.332 8.81654V11.8495C34.332 12.0929 34.134 12.2903 33.8897 12.2903H36.5577C36.8019 12.2903 37 12.093 37 11.8495V8.81654C37 8.57315 36.802 8.37585 36.5577 8.37585V8.37585Z" fill="#C8C3CA"/>
<path d="M36.5577 16.0848H33.8897C34.1339 16.0848 34.332 16.2821 34.332 16.5255V19.5584C34.332 19.8018 34.134 19.9991 33.8897 19.9991H36.5577C36.8019 19.9991 37 19.8018 37 19.5584V16.5255C37 16.2822 36.8019 16.0848 36.5577 16.0848Z" fill="#C8C3CA"/>
<path d="M36.5577 23.7936H33.8897C34.1339 23.7936 34.332 23.9909 34.332 24.2344V27.2673C34.332 27.5107 34.134 27.7081 33.8897 27.7081H36.5577C36.8019 27.7081 37 27.5108 37 27.2673V24.2344C37 23.991 36.8019 23.7936 36.5577 23.7936Z" fill="#C8C3CA"/>
<path d="M36.5577 31.7096H33.8897C34.1339 31.7096 34.332 31.9069 34.332 32.1503V35.1833C34.332 35.4267 34.134 35.624 33.8897 35.624H36.5577C36.8019 35.624 37 35.4267 37 35.1833V32.1503C37 31.9069 36.802 31.7096 36.5577 31.7096Z" fill="#C8C3CA"/>
<path d="M29.669 37.9526H7.33104C6.63336 37.9526 6.06783 37.3889 6.06783 36.6936V7.30633C6.06783 6.61108 6.63336 6.04736 7.33104 6.04736H11.0146L18.6073 6.93371L26.1999 6.04736H29.6691C30.3667 6.04736 30.9323 6.61099 30.9323 7.30633V36.6936C30.9322 37.3889 30.3666 37.9526 29.669 37.9526Z" fill="#95D6A4"/>
<path d="M29.669 6.04742H27.001C27.6986 6.04742 28.2642 6.61105 28.2642 7.30639V36.6937C28.2642 37.3889 27.6986 37.9526 27.001 37.9526H29.669C30.3666 37.9526 30.9322 37.389 30.9322 36.6937V7.3063C30.9322 6.61105 30.3666 6.04742 29.669 6.04742V6.04742Z" fill="#78C2A4"/>
<path d="M25.5409 33.8908H11.4591C11.0952 33.8908 10.8002 33.5968 10.8002 33.2341V29.8248L11.6896 27.7081L10.8002 25.7433V21.8019L11.6896 19.7612L10.8002 17.7205V14.3112C10.8002 13.9485 11.0952 13.6545 11.4591 13.6545H25.541C25.9049 13.6545 26.1999 13.9485 26.1999 14.3112V17.7205L25.3106 19.6367L26.1999 21.8018V25.7432L25.3106 27.784L26.1999 29.8247V33.234C26.1998 33.5968 25.9049 33.8908 25.5409 33.8908V33.8908Z" fill="#FFE07D"/>
<path d="M25.5409 13.6545H22.8729C23.2369 13.6545 23.5318 13.9485 23.5318 14.3112V33.234C23.5318 33.5967 23.2369 33.8907 22.8729 33.8907H25.5409C25.9049 33.8907 26.1998 33.5967 26.1998 33.234V14.3113C26.1998 13.9486 25.9049 13.6545 25.5409 13.6545V13.6545Z" fill="#FFD064"/>
<path d="M24.9559 10.3331H12.2585C11.5715 10.3331 11.0146 9.77805 11.0146 9.09335V6.04742H26.1999V9.09335C26.1999 9.77796 25.643 10.3331 24.9559 10.3331V10.3331Z" fill="#78C2A4"/>
<path d="M15.3199 21.8019H10.8002V17.7205H15.3198C15.7641 17.7205 16.1241 18.0793 16.1241 18.5221V21.0002C16.1242 21.443 15.7641 21.8019 15.3199 21.8019Z" fill="#FFCD59"/>
<path d="M15.3199 29.8248H10.8002V25.7433H15.3198C15.7641 25.7433 16.1241 26.1022 16.1241 26.545V29.0231C16.1242 29.4659 15.7641 29.8248 15.3199 29.8248Z" fill="#FFCD59"/>
<path d="M21.6802 25.7433H26.1998V29.8248H21.6802C21.2359 29.8248 20.8758 29.4659 20.8758 29.0232V26.545C20.8758 26.1022 21.2359 25.7433 21.6802 25.7433V25.7433Z" fill="#FFCD59"/>
<path d="M21.6802 17.7205H26.1998V21.802H21.6802C21.2359 21.802 20.8758 21.4431 20.8758 21.0003V18.5222C20.8758 18.0794 21.2359 17.7205 21.6802 17.7205V17.7205Z" fill="#FFCD59"/>
<path d="M23.5319 25.7433H26.1999V29.8248H23.5319V25.7433Z" fill="#FFC130"/>
<path d="M23.5319 17.7206H26.1999V21.8021H23.5319V17.7206Z" fill="#FFC130"/>
</svg>
